<?xml version="1.0" encoding="UTF-8"?>
<svg id="shopping-cart" xmlns="http://www.w3.org/2000/svg" viewBox="0 0 24 24">
  <defs>
    <style>
      .cls-1 {
        fill: #231f20;
      }
    </style>
  </defs>
  <path class="cls-1" d="m8.5,19c-.83,0-1.5.67-1.5,1.5s.67,1.5,1.5,1.5,1.5-.67,1.5-1.5-.67-1.5-1.5-1.5Zm10.5-3H7c-.55,0-1-.45-1-1s.45-1,1-1h8.49c1.34,0,2.52-.89,2.89-2.18l1.62-5.55c.16-.53-.13-1.09-.66-1.25-.02,0-.05-.01-.07-.02-.09-.02-.18-.02-.27,0H6.74c-.42-1.2-1.55-2-2.82-2h-.92c-.55,0-1,.45-1,1s.45,1,1,1h.92c.46-.02.88.28,1,.73l.08.54h0l1.68,5.73c-1.66.09-2.93,1.5-2.84,3.16.09,1.66,1.5,2.93,3.16,2.84h12c.55,0,1-.45,1-1s-.45-1-1-1Zm-1.33-9l-1.22,4.27c-.12.45-.54.75-1,.73h-6.7l-.25-.89-1.17-4.11h10.34Zm-1.17,12c-.83,0-1.5.67-1.5,1.5s.67,1.5,1.5,1.5,1.5-.67,1.5-1.5-.67-1.5-1.5-1.5Z"/>
</svg>